IDResults
version=1
nRows=22
nColumns=21
inDegrees=yes
endheader
time	crank_angle	pedal_angle_r	pelvis_tilt	pelvis_list	pelvis_rotation	pelvis_tx	pelvis_ty	pelvis_tz	hip_angle_r	hip_adduction_r	hip_rotation_r	knee_angle_r	tib_tx_r	tib_ty_r	pat_angle_r	pat_tx_r	pat_ty_r	ankle_angle_r	subtalar_angle_r	mtp_angle_r
      1.53910456	   -783.98354907	    790.40277634	      0.00000000	      0.00000000	      0.00000000	     -0.10000000	     -0.05000000	     -0.00085074	     75.11801780	      4.20496041	     -1.58737345	    -90.43208066	      0.00376601	     -0.48608593	     17.56823136	      0.03259415	     -0.02271541	     22.24466950	      0.00000000	      0.00000000
      1.53923790	   -784.04757076	    790.47862244	      0.00000000	      0.00000000	      0.00000000	     -0.10000000	     -0.05000000	     -0.00085074	     75.09692829	      4.20519243	     -1.58454502	    -90.39543809	      0.00377107	     -0.48607322	     17.56810421	      0.03260822	     -0.02271403	     22.24076460	      0.00000000	      0.00000000
      1.53949394	   -784.17050545	    790.62425059	      0.00000000	      0.00000000	      0.00000000	     -0.10000000	     -0.05000000	     -0.00085074	     75.05637505	      4.20563733	     -1.57911347	    -90.32505101	      0.00378076	     -0.48604880	     17.56786068	      0.03263523	     -0.02271138	     22.23328607	      0.00000000	      0.00000000
      1.53984124	   -784.33725760	    790.82175999	      0.00000000	      0.00000000	      0.00000000	     -0.10000000	     -0.05000000	     -0.00085074	     75.00124779	      4.20623947	     -1.57174514	    -90.22952178	      0.00379386	     -0.48601567	     17.56753166	      0.03267185	     -0.02270780	     22.22318335	      0.00000000	      0.00000000
      1.53989289	   -784.36205676	    790.85113090	      0.00000000	      0.00000000	      0.00000000	     -0.10000000	     -0.05000000	     -0.00085074	     74.99303759	      4.20632889	     -1.57064926	    -90.21530949	      0.00379581	     -0.48601074	     17.56748286	      0.03267730	     -0.02270727	     22.22168496	      0.00000000	      0.00000000
      1.54002120	   -784.42366335	    790.92409198	      0.00000000	      0.00000000	      0.00000000	     -0.10000000	     -0.05000000	     -0.00085074	     74.97262851	      4.20655088	     -1.56792674	    -90.17999711	      0.00380063	     -0.48599849	     17.56736178	      0.03269083	     -0.02270596	     22.21796719	      0.00000000	      0.00000000
      1.54037693	   -784.59446306	    791.12635095	      0.00000000	      0.00000000	      0.00000000	     -0.10000000	     -0.05000000	     -0.00085074	     74.91594805	      4.20716522	     -1.56037812	    -90.08205214	      0.00381395	     -0.48596452	     17.56702719	      0.03272833	     -0.02270232	     22.20769404	      0.00000000	      0.00000000
      1.54050777	   -784.65728440	    791.20073576	      0.00000000	      0.00000000	      0.00000000	     -0.10000000	     -0.05000000	     -0.00085074	     74.89506448	      4.20739077	     -1.55760144	    -90.04601108	      0.00381884	     -0.48595202	     17.56690454	      0.03274212	     -0.02270099	     22.20392811	      0.00000000	      0.00000000
      1.54076074	   -784.77874507	    791.34454220	      0.00000000	      0.00000000	      0.00000000	     -0.10000000	     -0.05000000	     -0.00085074	     74.85463267	      4.20782623	     -1.55223256	    -89.97630360	      0.00382826	     -0.48592784	     17.56666804	      0.03276878	     -0.02269842	     22.19666621	      0.00000000	      0.00000000
      1.54110946	   -784.94617902	    791.54275538	      0.00000000	      0.00000000	      0.00000000	     -0.10000000	     -0.05000000	     -0.00085074	     74.79877890	      4.20842515	     -1.54483077	    -89.88015869	      0.00384120	     -0.48589450	     17.56634342	      0.03280552	     -0.02269490	     22.18669729	      0.00000000	      0.00000000
      1.54115827	   -784.96961458	    791.57049683	      0.00000000	      0.00000000	      0.00000000	     -0.10000000	     -0.05000000	     -0.00085074	     74.79095018	      4.20850886	     -1.54379467	    -89.86669651	      0.00384301	     -0.48588983	     17.56629812	      0.03281066	     -0.02269440	     22.18530580	      0.00000000	      0.00000000
      1.54128761	   -785.03171571	    791.64400528	      0.00000000	      0.00000000	      0.00000000	     -0.10000000	     -0.05000000	     -0.00085074	     74.77019216	      4.20873052	     -1.54104908	    -89.83101776	      0.00384779	     -0.48587746	     17.56617822	      0.03282428	     -0.02269310	     22.18162313	      0.00000000	      0.00000000
      1.54162768	   -785.19499646	    791.83726046	      0.00000000	      0.00000000	      0.00000000	     -0.10000000	     -0.05000000	     -0.00085074	     74.71552412	      4.20931227	     -1.53382957	    -89.73716881	      0.00386032	     -0.48584491	     17.56586406	      0.03286009	     -0.02268970	     22.17197214	      0.00000000	      0.00000000
      1.54175554	   -785.25638698	    791.90991389	      0.00000000	      0.00000000	      0.00000000	     -0.10000000	     -0.05000000	     -0.00085074	     74.69493646	      4.20953061	     -1.53111496	    -89.70186849	      0.00386502	     -0.48583267	     17.56574636	      0.03287356	     -0.02268842	     22.16835545	      0.00000000	      0.00000000
      1.54200194	   -785.37469314	    792.04991422	      0.00000000	      0.00000000	      0.00000000	     -0.10000000	     -0.05000000	     -0.00085074	     74.65521029	      4.20995077	     -1.52588326	    -89.63381818	      0.00387405	     -0.48580907	     17.56552017	      0.03289950	     -0.02268596	     22.16140408	      0.00000000	      0.00000000
      1.54235155	   -785.54255441	    792.24853272	      0.00000000	      0.00000000	      0.00000000	     -0.10000000	     -0.05000000	     -0.00085074	     74.59872781	      4.21054556	     -1.51845942	    -89.53721225	      0.00388681	     -0.48577558	     17.56520071	      0.03293629	     -0.02268250	     22.15158252	      0.00000000	      0.00000000
      1.54239722	   -785.56448234	    792.27447644	      0.00000000	      0.00000000	      0.00000000	     -0.10000000	     -0.05000000	     -0.00085074	     74.59133939	      4.21062314	     -1.51748956	    -89.52458808	      0.00388848	     -0.48577120	     17.56515910	      0.03294110	     -0.02268205	     22.15030312	      0.00000000	      0.00000000
      1.54252771	   -785.62713563	    792.34860113	      0.00000000	      0.00000000	      0.00000000	     -0.10000000	     -0.05000000	     -0.00085074	     74.57021617	      4.21084465	     -1.51471839	    -89.48851220	      0.00389322	     -0.48575869	     17.56504040	      0.03295483	     -0.02268076	     22.14665217	      0.00000000	      0.00000000
      1.54284845	   -785.78113530	    792.53078055	      0.00000000	      0.00000000	      0.00000000	     -0.10000000	     -0.05000000	     -0.00085074	     74.51821579	      4.21138815	     -1.50790642	    -89.39980372	      0.00390485	     -0.48572793	     17.56474966	      0.03298857	     -0.02267761	     22.13770715	      0.00000000	      0.00000000
      1.54297489	   -785.84184403	    792.60259165	      0.00000000	      0.00000000	      0.00000000	     -0.10000000	     -0.05000000	     -0.00085074	     74.49768527	      4.21160203	     -1.50522086	    -89.36481996	      0.00390942	     -0.48571580	     17.56463546	      0.03300187	     -0.02267637	     22.13419222	      0.00000000	      0.00000000
      1.54321205	   -785.95571370	    792.73727591	      0.00000000	      0.00000000	      0.00000000	     -0.10000000	     -0.05000000	     -0.00085074	     74.45912913	      4.21200263	     -1.50018331	    -89.29918108	      0.00391797	     -0.48569304	     17.56442189	      0.03302681	     -0.02267406	     22.12761660	      0.00000000	      0.00000000
      1.54356113	   -786.12332050	    792.93549679	      0.00000000	      0.00000000	      0.00000000	     -0.10000000	     -0.05000000	     -0.00085074	     74.40226498	      4.21259091	     -1.49276776	    -89.20251694	      0.00393051	     -0.48565953	     17.56410906	      0.03306351	     -0.02267067	     22.11797883	      0.00000000	      0.00000000
